<svg xmlns="http://www.w3.org/2000/svg" viewBox="0 162.5 564.0500183105469 249.9999542236328"> <svg xmlns="http://www.w3.org/2000/svg" id="a" viewBox="0 0 374.0799865722656 409.7300109863281" height="109.99995422363281" width="100.4289853123312" y="232.5" x="70" preserveAspectRatio="xMinYMin" style="overflow: visible;"><rect x="153.96" y="188.88" width="65.53" height="41.87" style="fill: #1DBF73; fill-opacity: 1;"></rect><rect x="231.41" y="82.34" width="65.53" height="148.86" style="fill-opacity: 1; fill: #1DBF73;"></rect><polygon points="308.55 0 308.55 74.52 308.55 75.17 308.55 149.69 374.08 149.69 374.08 75.17 374.08 74.52 374.08 0 308.55 0" style="fill-opacity: 1; fill: #1DBF73;"></polygon><rect x="180.74" y="188.88" width="11.97" height="148.41" style="fill-opacity: 1; fill: #1DBF73;"></rect><polygon points="364.58 219.81 374.08 180.66 337.7 197.97 364.58 219.81" style="fill: #FFFFFF; fill-opacity: 1;"></polygon><circle cx="13.28" cy="197.24" r="13.28" style="fill: #FFFFFF; fill-opacity: 1;"></circle><circle cx="186.72" cy="396.45" r="13.28" style="fill: #FFFFFF; fill-opacity: 1;"></circle><path d="M0,.41V149.27H65.53V.41H0ZM53.55,136.92H11.97V12.76H53.55v124.16Z" style="fill: #F74040; fill-opacity: 1;"></path><path d="M76.51,82.34V231.2h65.53V82.34H76.51Zm53.55,136.51h-41.58V94.69h41.58v124.16Z" style="fill: #F74040; fill-opacity: 1;"></path><polygon points="24.05 200.27 8.31 200.27 180.05 403.43 195.79 403.43 24.05 200.27" style="fill: #FFFFFF; fill-opacity: 1;"></polygon><polygon points="356.86 193.62 178.85 402.22 194.58 402.22 365.45 202 356.86 193.62" style="fill: #FFFFFF; fill-opacity: 1;"></polygon></svg> <svg y="243.38000061035157" viewBox="2.119999885559082 6.579999923706055 296.0500183105469 50.76000213623047" x="198" height="50.76000213623047" width="296.0500183105469" style="overflow: visible;"><g fill="#FFFFFF" fill-opacity="1" style=""><path d="M30.93 18.47L30.93 18.47Q30.93 20.96 30.13 22.94Q29.33 24.91 27.61 26.27Q25.90 27.64 23.15 28.39Q20.40 29.14 16.45 29.14L16.45 29.14L12.22 29.14L12.22 38.21Q12.22 39.95 12.43 41.05Q12.64 42.16 13.32 42.77Q14.01 43.38 15.30 43.59Q16.59 43.80 18.71 43.80L18.71 43.80L18.71 45.59L2.12 45.59L2.12 43.80Q3.76 43.76 4.77 43.52Q5.78 43.29 6.34 42.72Q6.91 42.16 7.10 41.13Q7.29 40.09 7.29 38.45L7.29 38.45L7.29 16.54Q7.29 14.90 7.12 13.89Q6.96 12.88 6.46 12.29Q5.97 11.70 5.03 11.49Q4.09 11.28 2.58 11.19L2.58 11.19L2.58 9.40L17.34 9.40Q23.83 9.40 27.38 11.80Q30.93 14.19 30.93 18.47ZM12.22 12.41L12.22 26.79L15.56 26.79Q20.26 26.79 22.54 24.98Q24.82 23.17 24.82 19.04L24.82 19.04Q24.82 15.04 23.01 13.32Q21.20 11.61 17.34 11.61L17.34 11.61L13.02 11.61Q12.22 11.61 12.22 12.41L12.22 12.41ZM47.66 35.39L47.66 31.68Q44.98 32.71 43.12 33.70Q41.27 34.69 40.14 35.67Q39.01 36.66 38.52 37.65Q38.02 38.63 38.02 39.67L38.02 39.67Q38.02 41.22 39.06 42.21Q40.09 43.19 41.78 43.19L41.78 43.19Q43.01 43.19 44.06 42.58Q45.12 41.97 45.92 40.91Q46.72 39.86 47.19 38.42Q47.66 36.99 47.66 35.39L47.66 35.39ZM40.89 32.62L47.66 29.66L47.66 27.73Q47.66 22.00 42.77 22.00L42.77 22.00Q41.97 22.00 41.41 22.14Q40.84 22.28 40.47 22.61Q40.09 22.94 39.79 23.55Q39.48 24.16 39.20 25.05L39.20 25.05Q38.68 26.41 38.19 26.86Q37.69 27.31 36.75 27.31L36.75 27.31Q34.40 27.31 34.40 24.96L34.40 24.96Q34.40 22.70 36.80 21.46Q39.20 20.21 43.62 20.21L43.62 20.21Q48.32 20.21 50.29 21.88Q52.26 23.55 52.26 27.54L52.26 27.54L52.26 38.07Q52.26 43.43 54.38 43.43L54.38 43.43Q55.04 43.43 55.65 43.26Q56.26 43.10 56.68 42.39L56.68 42.39L57.34 43.52Q56.78 44.60 55.27 45.33Q53.77 46.06 52.12 46.06L52.12 46.06Q50.06 46.06 49.04 44.74Q48.03 43.43 48.03 41.03L48.03 41.03L47.80 41.03Q46.58 43.33 44.42 44.67Q42.25 46.01 39.62 46.01L39.62 46.01Q36.66 46.01 34.97 44.51Q33.28 43.01 33.28 40.47L33.28 40.47Q33.28 39.34 33.68 38.31Q34.08 37.27 34.97 36.33Q35.86 35.39 37.32 34.47Q38.78 33.56 40.89 32.62L40.89 32.62ZM66.69 20.40L66.69 24.06L66.88 24.06Q68.39 22.28 70.12 21.24Q71.86 20.21 74.17 20.21L74.17 20.21Q76.84 20.21 79.08 21.17Q81.31 22.14 82.96 23.88Q84.60 25.62 85.52 27.99Q86.43 30.36 86.43 33.18L86.43 33.18Q86.43 36.05 85.49 38.42Q84.55 40.80 82.91 42.49Q81.26 44.18 79.01 45.12Q76.75 46.06 74.12 46.06L74.12 46.06Q71.96 46.06 70.19 45.33Q68.43 44.60 66.88 42.96L66.88 42.96L66.88 49.82Q66.88 51.70 67.07 52.83Q67.26 53.96 67.82 54.57Q68.39 55.18 69.44 55.41Q70.50 55.65 72.24 55.70L72.24 55.70L72.24 57.34L57.76 57.34L57.76 55.70Q59.17 55.65 60.04 55.41Q60.91 55.18 61.41 54.57Q61.90 53.96 62.09 52.90Q62.28 51.84 62.28 50.15L62.28 50.15L62.28 32.57Q62.28 29.85 62.20 28.11Q62.13 26.37 61.95 25.71L61.95 25.71Q61.71 24.58 60.87 24.18Q60.02 23.78 57.67 23.78L57.67 23.78L57.67 22.18L66.69 20.40ZM68.10 25.43L68.10 25.43Q67.49 26.37 67.19 27.66Q66.88 28.95 66.88 31.02L66.88 31.02L66.88 34.69Q66.88 35.96 66.95 36.87Q67.02 37.79 67.16 38.45Q67.30 39.10 67.54 39.62Q67.77 40.14 68.15 40.61L68.15 40.61Q69.23 42.11 70.74 42.93Q72.24 43.76 73.88 43.76L73.88 43.76Q77.13 43.76 79.12 41.03Q81.12 38.31 81.12 33.37L81.12 33.37Q81.12 30.93 80.58 28.93Q80.04 26.93 79.05 25.50Q78.07 24.06 76.68 23.27Q75.29 22.47 73.60 22.47L73.60 22.47Q71.91 22.47 70.48 23.24Q69.04 24.02 68.10 25.43ZM111.34 39.90L112.80 41.22Q108.81 46.06 102.88 46.06L102.88 46.06Q100.11 46.06 97.85 45.14Q95.60 44.23 93.98 42.56Q92.36 40.89 91.46 38.56Q90.57 36.24 90.57 33.42L90.57 33.42Q90.57 30.55 91.51 28.11Q92.45 25.66 94.16 23.92Q95.88 22.18 98.25 21.20Q100.63 20.21 103.45 20.21L103.45 20.21Q108.01 20.21 110.50 22.68Q112.99 25.15 112.99 29.75L112.99 29.75Q112.99 30.41 112.73 30.55Q112.47 30.69 111.53 30.69L111.53 30.69L96.07 30.69Q95.97 31.07 95.93 31.61Q95.88 32.15 95.88 32.81L95.88 32.81Q95.88 35.25 96.47 37.25Q97.06 39.25 98.16 40.66Q99.26 42.07 100.79 42.84Q102.32 43.62 104.20 43.62L104.20 43.62Q106.17 43.62 107.87 42.75Q109.56 41.88 111.34 39.90L111.34 39.90ZM96.40 28.53L105.05 28.53Q105.99 28.53 106.55 28.48Q107.11 28.44 107.40 28.29Q107.68 28.15 107.77 27.89Q107.87 27.64 107.87 27.21L107.87 27.21Q107.87 25.05 106.48 23.76Q105.09 22.47 102.70 22.47L102.70 22.47Q97.62 22.47 96.40 28.53L96.40 28.53ZM125.16 36.52L125.16 38.12Q125.16 40.04 125.26 41.17Q125.35 42.30 125.75 42.89Q126.15 43.48 126.90 43.66Q127.65 43.85 129.02 43.95L129.02 43.95L129.02 45.59L116.51 45.59L116.51 43.95Q117.88 43.90 118.67 43.69Q119.47 43.48 119.90 42.91Q120.32 42.35 120.44 41.29Q120.56 40.23 120.56 38.45L120.56 38.45L120.56 32.95Q120.56 29.75 120.48 27.97Q120.41 26.18 120.01 25.33Q119.62 24.49 118.77 24.32Q117.92 24.16 116.42 24.16L116.42 24.16L116.42 22.51L124.64 20.73L125.30 26.56L125.49 26.56Q126.10 25.15 127.02 23.97Q127.93 22.80 129.02 21.97Q130.10 21.15 131.27 20.68Q132.45 20.21 133.67 20.21L133.67 20.21Q135.17 20.21 136.04 20.94Q136.91 21.67 136.91 22.89L136.91 22.89Q136.91 24.02 136.21 24.65Q135.50 25.29 134.19 25.29L134.19 25.29Q133.43 25.29 132.92 25.10Q132.40 24.91 132.00 24.70Q131.60 24.49 131.25 24.30Q130.90 24.11 130.47 24.11L130.47 24.11Q129.20 24.11 127.93 25.73Q126.67 27.35 125.96 29.85L125.96 29.85Q125.58 31.21 125.37 32.92Q125.16 34.64 125.16 36.52L125.16 36.52ZM183.49 9.40L183.96 18.38L182.03 18.38Q181.89 16.36 181.37 14.99Q180.86 13.63 179.89 12.85Q178.93 12.08 177.47 11.75Q176.02 11.42 173.99 11.42L173.99 11.42Q172.26 11.42 171.20 11.49Q170.14 11.56 169.58 11.75Q169.01 11.94 168.85 12.20Q168.68 12.46 168.68 12.88L168.68 12.88L168.68 38.02Q168.68 39.53 168.89 40.61Q169.11 41.69 169.74 42.37Q170.38 43.05 171.57 43.40Q172.77 43.76 174.75 43.80L174.75 43.80L174.75 45.59L156.98 45.59L156.98 43.80Q158.95 43.76 160.18 43.40Q161.40 43.05 162.03 42.37Q162.67 41.69 162.88 40.61Q163.09 39.53 163.09 38.02L163.09 38.02L163.09 12.88Q163.09 12.46 162.93 12.20Q162.76 11.94 162.27 11.75Q161.77 11.56 160.88 11.49Q159.99 11.42 158.48 11.42L158.48 11.42Q156.65 11.42 155.08 11.56Q153.50 11.70 152.35 12.38Q151.20 13.07 150.49 14.48Q149.79 15.89 149.74 18.38L149.74 18.38L148.00 18.38L148.00 9.40L183.49 9.40ZM194.06 32.10L194.06 38.12Q194.06 40.04 194.16 41.17Q194.25 42.30 194.65 42.89Q195.05 43.48 195.80 43.66Q196.55 43.85 197.92 43.95L197.92 43.95L197.92 45.59L185.42 45.59L185.42 43.95Q186.78 43.85 187.58 43.66Q188.38 43.48 188.80 42.91Q189.22 42.35 189.34 41.29Q189.46 40.23 189.46 38.45L189.46 38.45L189.46 18.75Q189.46 15.98 189.39 14.34Q189.32 12.69 189.13 11.84L189.13 11.84Q189.03 11.28 188.82 10.93Q188.61 10.58 188.19 10.36Q187.77 10.15 187.06 10.06Q186.36 9.96 185.32 9.96L185.32 9.96L185.32 8.37L193.97 6.58L193.97 24.49L194.16 24.49Q194.86 23.55 195.92 22.77Q196.98 22.00 198.20 21.43Q199.42 20.87 200.76 20.54Q202.10 20.21 203.37 20.21L203.37 20.21Q205.53 20.21 207.34 20.96Q209.15 21.71 210.14 22.98L210.14 22.98Q210.94 24.06 211.31 25.83Q211.69 27.59 211.69 30.60L211.69 30.60L211.69 38.12Q211.69 40.04 211.78 41.15Q211.88 42.25 212.28 42.86Q212.68 43.48 213.43 43.66Q214.18 43.85 215.54 43.95L215.54 43.95L215.54 45.59L203.09 45.59L203.09 43.95Q204.40 43.90 205.20 43.69Q206.00 43.48 206.40 42.91Q206.80 42.35 206.92 41.29Q207.03 40.23 207.03 38.45L207.03 38.45L207.03 32.52Q207.03 27.26 205.81 25.03Q204.59 22.80 201.72 22.80L201.72 22.80Q199.52 22.80 197.71 23.92Q195.90 25.05 194.86 27.03L194.86 27.03Q194.63 27.54 194.46 27.99Q194.30 28.44 194.20 29.00Q194.11 29.56 194.09 30.29Q194.06 31.02 194.06 32.10L194.06 32.10ZM239.23 39.90L240.69 41.22Q236.69 46.06 230.77 46.06L230.77 46.06Q228.00 46.06 225.74 45.14Q223.48 44.23 221.86 42.56Q220.24 40.89 219.35 38.56Q218.46 36.24 218.46 33.42L218.46 33.42Q218.46 30.55 219.40 28.11Q220.34 25.66 222.05 23.92Q223.77 22.18 226.14 21.20Q228.51 20.21 231.33 20.21L231.33 20.21Q235.89 20.21 238.38 22.68Q240.88 25.15 240.88 29.75L240.88 29.75Q240.88 30.41 240.62 30.55Q240.36 30.69 239.42 30.69L239.42 30.69L223.95 30.69Q223.86 31.07 223.81 31.61Q223.77 32.15 223.77 32.81L223.77 32.81Q223.77 35.25 224.35 37.25Q224.94 39.25 226.05 40.66Q227.15 42.07 228.68 42.84Q230.21 43.62 232.09 43.62L232.09 43.62Q234.06 43.62 235.75 42.75Q237.44 41.88 239.23 39.90L239.23 39.90ZM224.28 28.53L232.93 28.53Q233.87 28.53 234.44 28.48Q235 28.44 235.28 28.29Q235.56 28.15 235.66 27.89Q235.75 27.64 235.75 27.21L235.75 27.21Q235.75 25.05 234.37 23.76Q232.98 22.47 230.58 22.47L230.58 22.47Q225.51 22.47 224.28 28.53L224.28 28.53ZM247.60 43.95L246.66 45.59L245.62 45.59L245.62 37.51L246.80 37.51Q248.63 44.13 253.47 44.13L253.47 44.13Q255.35 44.13 256.46 43.22Q257.56 42.30 257.56 40.42L257.56 40.42Q257.56 39.72 257.35 39.22Q257.14 38.73 256.55 38.19Q255.96 37.65 254.90 36.94Q253.85 36.24 252.11 35.16L252.11 35.16Q250.51 34.17 249.34 33.32Q248.16 32.48 247.36 31.61Q246.56 30.74 246.16 29.75Q245.76 28.76 245.76 27.45L245.76 27.45Q245.76 25.85 246.30 24.51Q246.84 23.17 247.78 22.23Q248.72 21.29 249.99 20.75Q251.26 20.21 252.77 20.21L252.77 20.21Q254.03 20.21 255.40 20.61Q256.76 21.01 257.80 21.67L257.80 21.67L258.74 20.68L259.63 20.68L259.63 27.45L258.41 27.45Q257.37 24.58 256.15 23.36Q254.93 22.14 253.14 22.14L253.14 22.14Q251.54 22.14 250.58 22.98Q249.62 23.83 249.62 25.33L249.62 25.33Q249.62 26.13 249.88 26.72Q250.13 27.31 250.70 27.87Q251.26 28.44 252.13 29.02Q253.00 29.61 254.22 30.36L254.22 30.36Q256.24 31.63 257.68 32.62Q259.11 33.61 260.00 34.57Q260.90 35.53 261.32 36.57Q261.74 37.60 261.74 38.92L261.74 38.92Q261.74 42.25 259.58 44.16Q257.42 46.06 253.89 46.06L253.89 46.06Q250.23 46.06 247.60 43.95L247.60 43.95ZM274.20 20.21L274.20 38.12Q274.20 39.95 274.36 41.05Q274.53 42.16 275.00 42.79Q275.47 43.43 276.31 43.66Q277.16 43.90 278.57 43.95L278.57 43.95L278.57 45.59L265.08 45.59L265.08 43.95Q266.49 43.90 267.38 43.64Q268.28 43.38 268.77 42.79Q269.26 42.21 269.43 41.15Q269.59 40.09 269.59 38.45L269.59 38.45L269.59 32.43Q269.59 29.70 269.52 27.94Q269.45 26.18 269.26 25.52L269.26 25.52Q269.03 24.44 268.18 24.04Q267.34 23.64 264.99 23.64L264.99 23.64L264.99 22.00L274.20 20.21ZM268.79 10.67L268.79 10.67Q268.79 9.45 269.64 8.60Q270.48 7.76 271.71 7.76L271.71 7.76Q272.93 7.76 273.77 8.60Q274.62 9.45 274.62 10.67L274.62 10.67Q274.62 11.89 273.77 12.74Q272.93 13.58 271.71 13.58L271.71 13.58Q270.48 13.58 269.64 12.74Q268.79 11.89 268.79 10.67ZM284.02 43.95L283.08 45.59L282.05 45.59L282.05 37.51L283.22 37.51Q285.05 44.13 289.90 44.13L289.90 44.13Q291.78 44.13 292.88 43.22Q293.98 42.30 293.98 40.42L293.98 40.42Q293.98 39.72 293.77 39.22Q293.56 38.73 292.97 38.19Q292.39 37.65 291.33 36.94Q290.27 36.24 288.53 35.16L288.53 35.16Q286.93 34.17 285.76 33.32Q284.58 32.48 283.79 31.61Q282.99 30.74 282.59 29.75Q282.19 28.76 282.19 27.45L282.19 27.45Q282.19 25.85 282.73 24.51Q283.27 23.17 284.21 22.23Q285.15 21.29 286.42 20.75Q287.69 20.21 289.19 20.21L289.19 20.21Q290.46 20.21 291.82 20.61Q293.19 21.01 294.22 21.67L294.22 21.67L295.16 20.68L296.05 20.68L296.05 27.45L294.83 27.45Q293.80 24.58 292.57 23.36Q291.35 22.14 289.57 22.14L289.57 22.14Q287.97 22.14 287.01 22.98Q286.04 23.83 286.04 25.33L286.04 25.33Q286.04 26.13 286.30 26.72Q286.56 27.31 287.12 27.87Q287.69 28.44 288.56 29.02Q289.43 29.61 290.65 30.36L290.65 30.36Q292.67 31.63 294.10 32.62Q295.54 33.61 296.43 34.57Q297.32 35.53 297.74 36.57Q298.17 37.60 298.17 38.92L298.17 38.92Q298.17 42.25 296.01 44.16Q293.84 46.06 290.32 46.06L290.32 46.06Q286.65 46.06 284.02 43.95L284.02 43.95Z" transform="translate(0, 0)"></path></g></svg></svg>